<?xml version="1.0" encoding="utf-8"?>
<!-- Generator: Adobe Illustrator 26.0.0, SVG Export Plug-In . SVG Version: 6.00 Build 0)  -->
<svg version="1.1" id="Capa_1" xmlns="http://www.w3.org/2000/svg" xmlns:xlink="http://www.w3.org/1999/xlink" x="0px" y="0px"
	 viewBox="0 0 51 51" style="enable-background:new 0 0 51 51;" xml:space="preserve">
<style type="text/css">
	.st0{fill:#FFFFFF;}
	.st1{fill:#00A7DB;}
	.st2{fill:none;stroke:#FFFFFF;stroke-width:3.2;stroke-linejoin:round;stroke-miterlimit:10;}
	.st3{fill:none;stroke:#FFFFFF;stroke-width:2;stroke-linecap:round;stroke-miterlimit:10;}
	.st4{fill:none;stroke:#FFFFFF;stroke-width:2.5;stroke-linecap:round;stroke-miterlimit:10;}
	.st5{fill:none;stroke:#FFFFFF;stroke-width:3;stroke-miterlimit:10;}
	.st6{fill:none;stroke:#00A7DB;stroke-width:3;stroke-miterlimit:10;}
	.st7{fill:none;stroke:#00A7DB;stroke-width:2;stroke-miterlimit:10;}
	.st8{fill:none;}
	.st9{fill:#636363;}
	.st10{fill:none;stroke:#00A7DB;stroke-width:3.2;stroke-linejoin:round;stroke-miterlimit:10;}
	.st11{fill:none;stroke:#00A7DB;stroke-width:2;stroke-linecap:round;stroke-miterlimit:10;}
	.st12{fill:none;stroke:#00A7DB;stroke-width:2.5;stroke-linecap:round;stroke-miterlimit:10;}
	.st13{fill:#00AAE5;}
	.st14{fill:#ED0000;}
	.st15{fill:none;stroke:#00AAE5;stroke-width:2;stroke-miterlimit:10;}
	.st16{fill:#00AAE5;stroke:#00AAE5;stroke-width:2;stroke-miterlimit:10;}
	.st17{fill:none;stroke:#00AAE5;stroke-width:2;stroke-linecap:round;stroke-linejoin:round;stroke-miterlimit:10;}
</style>
<g>
	<path class="st0" d="M48.07,25.43c0,3.68-0.06,7.36,0.03,11.04c0.03,1.39-0.38,2.2-1.64,2.91c-6.47,3.63-12.9,7.34-19.29,11.11
		c-1.22,0.72-2.13,0.68-3.33-0.02c-6.35-3.69-12.73-7.32-19.14-10.9c-1.28-0.72-1.84-1.5-1.82-3.04c0.07-7.36,0.04-14.71-0.04-22.07
		c-0.01-1.31,0.38-2.06,1.55-2.72C10.91,8.04,17.41,4.29,23.87,0.5c1.14-0.67,2-0.65,3.13,0c6.42,3.72,12.86,7.4,19.34,11.02
		c1.22,0.68,1.75,1.44,1.71,2.87c-0.1,3.68-0.03,7.36-0.03,11.04C48.03,25.43,48.05,25.43,48.07,25.43z M42.42,14.16
		C36.79,10.94,31.57,7.93,26.31,5c-0.46-0.26-1.31-0.26-1.76,0c-5.25,2.96-10.46,5.99-16.08,9.24c5.62,3.21,10.84,6.22,16.11,9.15
		c0.46,0.26,1.32,0.26,1.77,0C31.6,20.43,36.82,17.39,42.42,14.16z M26.89,45.69c5.73-3.28,10.89-6.2,15.98-9.2
		c0.5-0.3,0.93-1.17,0.94-1.78c0.07-5.83,0.04-11.67,0.04-18.1c-5.74,3.3-10.95,6.26-16.11,9.31c-0.48,0.28-0.81,1.21-0.82,1.84
		C26.86,33.52,26.89,39.28,26.89,45.69z M23.33,28.06c-0.01-0.63-0.34-1.56-0.82-1.84C17.35,23.16,12.14,20.2,6.4,16.9
		c0,6.43-0.03,12.27,0.04,18.1c0.01,0.61,0.44,1.48,0.94,1.78c5.1,3.01,10.25,5.92,15.98,9.2C23.36,39.58,23.39,33.82,23.33,28.06z"
		/>
</g>
</svg>
