<?xml version="1.0" encoding="utf-8"?>
<!-- Generator: Adobe Illustrator 26.0.0, SVG Export Plug-In . SVG Version: 6.00 Build 0)  -->
<svg version="1.1" id="Capa_1" xmlns="http://www.w3.org/2000/svg" xmlns:xlink="http://www.w3.org/1999/xlink" x="0px" y="0px"
	 viewBox="0 0 51 51" style="enable-background:new 0 0 51 51;" xml:space="preserve">
<style type="text/css">
	.st0{fill:#FFFFFF;}
	.st1{fill:#00A7DB;}
	.st2{fill:none;stroke:#FFFFFF;stroke-width:3.2;stroke-linejoin:round;stroke-miterlimit:10;}
	.st3{fill:none;stroke:#FFFFFF;stroke-width:2;stroke-linecap:round;stroke-miterlimit:10;}
	.st4{fill:none;stroke:#FFFFFF;stroke-width:2.5;stroke-linecap:round;stroke-miterlimit:10;}
	.st5{fill:none;stroke:#FFFFFF;stroke-width:3;stroke-miterlimit:10;}
	.st6{fill:none;stroke:#00A7DB;stroke-width:3;stroke-miterlimit:10;}
	.st7{fill:none;stroke:#00A7DB;stroke-width:2;stroke-miterlimit:10;}
	.st8{fill:none;}
	.st9{fill:#636363;}
	.st10{fill:none;stroke:#00A7DB;stroke-width:3.2;stroke-linejoin:round;stroke-miterlimit:10;}
	.st11{fill:none;stroke:#00A7DB;stroke-width:2;stroke-linecap:round;stroke-miterlimit:10;}
	.st12{fill:none;stroke:#00A7DB;stroke-width:2.5;stroke-linecap:round;stroke-miterlimit:10;}
	.st13{fill:#00AAE5;}
	.st14{fill:#ED0000;}
	.st15{fill:none;stroke:#00AAE5;stroke-width:2;stroke-miterlimit:10;}
	.st16{fill:#00AAE5;stroke:#00AAE5;stroke-width:2;stroke-miterlimit:10;}
	.st17{fill:none;stroke:#00AAE5;stroke-width:2;stroke-linecap:round;stroke-linejoin:round;stroke-miterlimit:10;}
</style>
<g>
	<path class="st0" d="M0,15.96c0.27-0.96,0.68-1.83,1.44-2.51c0.86-0.78,1.88-1.17,3.03-1.2c0.95-0.02,1.89,0.01,2.84-0.01
		c0.46-0.01,0.6,0.15,0.6,0.6c-0.02,3.02-0.01,6.04-0.01,9.06c0,4.03-0.02,8.06,0.01,12.09c0.02,3.46,1.5,6.13,4.46,7.93
		c1.22,0.75,2.56,1.19,4.01,1.19c7.1,0.01,14.2,0.01,21.3,0.02c1.13,0,1.06-0.08,1.06,1.05c-0.01,0.88,0.01,1.75-0.06,2.63
		c-0.17,2.11-1.84,3.88-3.93,4.12c-0.1,0.01-0.19,0.04-0.29,0.07c-10.09,0-20.17,0-30.26,0c-0.88-0.13-1.7-0.38-2.43-0.93
		C0.82,49.35,0.31,48.4,0,47.31C0,36.86,0,26.41,0,15.96z"/>
	<path class="st0" d="M51,4.73c0-1.07-0.28-2.03-0.92-2.88c-0.97-1.3-2.32-1.82-3.9-1.83c-1.97-0.01-3.95,0-5.92,0
		c-7.68,0-15.36,0-23.04,0c-1.65,0-3.05,0.53-4.07,1.9c-0.73,0.98-0.91,2.11-0.91,3.29c0,9.21,0,18.41,0,27.62
		c0,0.6,0.01,1.19,0.06,1.79c0.16,1.81,1.45,3.43,3.18,3.94c0.56,0.17,1.13,0.22,1.72,0.22c9.64,0,19.28,0,28.91,0
		c0.82,0,1.63-0.1,2.36-0.49c1.69-0.91,2.53-2.32,2.52-4.24c-0.01-4.88,0-9.75,0-14.63C50.99,14.52,50.99,9.63,51,4.73z M41.03,8.39
		c1.9,0,3.45,1.54,3.45,3.45s-1.54,3.45-3.45,3.45s-3.45-1.54-3.45-3.45S39.13,8.39,41.03,8.39z M44.46,32.37
		c-4.19,0.01-8.39,0-12.58,0c-4.11,0-8.22,0-12.34,0c-0.4,0-0.8,0.02-1.13-0.26c-0.54-0.45-0.62-1-0.42-1.66
		c0.74-2.42,1.47-4.85,2.2-7.28c0.44-1.46,0.87-2.92,1.33-4.37c0.36-1.12,1.17-1.69,2.22-1.62c0.76,0.05,1.28,0.48,1.71,1.07
		c1.5,2.11,3,4.21,4.5,6.32c0.13,0.18,0.25,0.35,0.38,0.52c0.84,1.12,2.02,1.34,3.19,0.57c1.19-0.78,2.36-1.6,3.54-2.4
		c0.36-0.24,0.71-0.5,1.07-0.72c1.04-0.63,2.23-0.42,2.9,0.58c1.59,2.37,3.15,4.75,4.68,7.16C46.37,31.33,45.73,32.37,44.46,32.37z"
		/>
</g>
</svg>
