<?xml version="1.0" encoding="utf-8"?>
<!-- Generator: Adobe Illustrator 26.0.0, SVG Export Plug-In . SVG Version: 6.00 Build 0)  -->
<svg version="1.1" id="Capa_1" xmlns="http://www.w3.org/2000/svg" xmlns:xlink="http://www.w3.org/1999/xlink" x="0px" y="0px"
	 viewBox="0 0 51 51" style="enable-background:new 0 0 51 51;" xml:space="preserve">
<style type="text/css">
	.st0{fill:#FFFFFF;}
	.st1{fill:#00A7DB;}
	.st2{fill:none;stroke:#FFFFFF;stroke-width:3.2;stroke-linejoin:round;stroke-miterlimit:10;}
	.st3{fill:none;stroke:#FFFFFF;stroke-width:2;stroke-linecap:round;stroke-miterlimit:10;}
	.st4{fill:none;stroke:#FFFFFF;stroke-width:2.5;stroke-linecap:round;stroke-miterlimit:10;}
	.st5{fill:none;stroke:#FFFFFF;stroke-width:3;stroke-miterlimit:10;}
	.st6{fill:none;stroke:#00A7DB;stroke-width:3;stroke-miterlimit:10;}
	.st7{fill:none;stroke:#00A7DB;stroke-width:2;stroke-miterlimit:10;}
	.st8{fill:none;}
	.st9{fill:#636363;}
	.st10{fill:none;stroke:#00A7DB;stroke-width:3.2;stroke-linejoin:round;stroke-miterlimit:10;}
	.st11{fill:none;stroke:#00A7DB;stroke-width:2;stroke-linecap:round;stroke-miterlimit:10;}
	.st12{fill:none;stroke:#00A7DB;stroke-width:2.5;stroke-linecap:round;stroke-miterlimit:10;}
	.st13{fill:#00AAE5;}
	.st14{fill:#ED0000;}
	.st15{fill:none;stroke:#00AAE5;stroke-width:2;stroke-miterlimit:10;}
	.st16{fill:#00AAE5;stroke:#00AAE5;stroke-width:2;stroke-miterlimit:10;}
	.st17{fill:none;stroke:#00AAE5;stroke-width:2;stroke-linecap:round;stroke-linejoin:round;stroke-miterlimit:10;}
</style>
<g>
	<g>
		<path class="st0" d="M40.82,32.7c-10.24-3.06-20.39-3.06-30.62,0c0,0.5,0,0.9,0,1.3c0,4.08,0,8.15,0,12.23
			c0,1.67-0.36,2.04-1.52,1.58c-2.21-0.88-4.36-1.95-6.23-3.91c-1.31-1.37-1.97-3.11-1.95-5.5c0.06-7.78,0.05-15.57,0.01-23.35
			c-0.01-2.21,0.58-3.85,1.77-5.17c2.06-2.27,4.48-3.39,6.96-4.31c4.12-1.52,8.32-2.18,12.56-2.49c4.01-0.29,8.02-0.12,12.01,0.49
			c4.17,0.64,8.29,1.62,12.17,4.01c1.38,0.85,2.69,1.88,3.68,3.56c0.56,0.95,0.85,2.02,0.85,3.26c-0.01,8.27-0.01,16.53,0,24.8
			c0,1.97-0.72,3.37-1.75,4.51c-2,2.23-4.38,3.34-6.8,4.26c-0.74,0.28-1.12-0.28-1.13-1.53c-0.01-4.11,0-8.23,0-12.34
			C40.82,33.69,40.82,33.29,40.82,32.7z M10.2,30.38c10.24-2.94,20.4-2.93,30.63,0c0-2.58,0-5.09,0-7.61c0-1.63,0.07-1.65,1.13-2.18
			c1.48-0.74,2.98-1.47,4.39-2.44c0.8-0.55,1.51-1.47,2.15-2.38c0.57-0.82,0.57-1.91,0.07-2.85c-0.31-0.58-0.67-1.2-1.11-1.54
			c-1.17-0.92-2.34-1.86-3.59-2.5c-4.24-2.16-8.66-3-13.14-3.39C24.3,4.93,17.91,5.22,11.61,7.1c-2.68,0.8-5.33,1.8-7.67,3.9
			c-2.43,2.19-2.47,4.51,0.03,6.52c1.58,1.27,3.34,2.11,5.06,3.02c1.1,0.59,1.17,0.58,1.17,2.26C10.2,25.32,10.2,27.84,10.2,30.38z"
			/>
	</g>
	<g>
		<path class="st0" d="M25.45,25.49c-3.19,0-6.38,0.03-9.57-0.04c-0.49-0.01-1.16-0.35-1.39-0.83c-0.18-0.38,0.06-1.32,0.33-1.8
			c2.23-3.84,4.51-7.64,6.78-11.45c0.98-1.64,1.5-1.64,2.47-0.03c1.62,2.7,3.23,5.42,4.85,8.13c0.15,0.26,0.29,0.58,0.49,0.73
			c0.18,0.14,0.45,0.09,0.68,0.12c0.02-0.3,0.15-0.67,0.05-0.88c-0.29-0.62-0.71-1.15-0.99-1.78c-0.12-0.27-0.03-0.69-0.03-1.05
			c0-0.07,0.07-0.13,0.11-0.19c1.38-2.42,1.75-2.42,3.17-0.02c1.27,2.13,2.56,4.23,3.78,6.41c0.28,0.49,0.51,1.38,0.34,1.83
			c-0.16,0.44-0.85,0.79-1.31,0.8C31.96,25.52,28.7,25.49,25.45,25.49z"/>
	</g>
	<g>
		<path class="st0" d="M29.09,11.34c-0.89-0.02-1.54-0.91-1.5-2.03c0.04-1.12,0.73-1.93,1.62-1.88c0.84,0.05,1.44,0.87,1.44,1.98
			C30.64,10.57,30,11.37,29.09,11.34z"/>
	</g>
</g>
</svg>
