<?xml version="1.0" encoding="utf-8"?>
<!-- Generator: Adobe Illustrator 26.0.0, SVG Export Plug-In . SVG Version: 6.00 Build 0)  -->
<svg version="1.1" id="Capa_1" xmlns="http://www.w3.org/2000/svg" xmlns:xlink="http://www.w3.org/1999/xlink" x="0px" y="0px"
	 viewBox="0 0 51 51" style="enable-background:new 0 0 51 51;" xml:space="preserve">
<style type="text/css">
	.st0{fill:#FFFFFF;}
	.st1{fill:#00A7DB;}
	.st2{fill:none;stroke:#FFFFFF;stroke-width:3.2;stroke-linejoin:round;stroke-miterlimit:10;}
	.st3{fill:none;stroke:#FFFFFF;stroke-width:2;stroke-linecap:round;stroke-miterlimit:10;}
	.st4{fill:none;stroke:#FFFFFF;stroke-width:2.5;stroke-linecap:round;stroke-miterlimit:10;}
	.st5{fill:none;stroke:#FFFFFF;stroke-width:3;stroke-miterlimit:10;}
	.st6{fill:none;stroke:#00A7DB;stroke-width:3;stroke-miterlimit:10;}
	.st7{fill:none;stroke:#00A7DB;stroke-width:2;stroke-miterlimit:10;}
	.st8{fill:none;}
	.st9{fill:#636363;}
	.st10{fill:none;stroke:#00A7DB;stroke-width:3.2;stroke-linejoin:round;stroke-miterlimit:10;}
	.st11{fill:none;stroke:#00A7DB;stroke-width:2;stroke-linecap:round;stroke-miterlimit:10;}
	.st12{fill:none;stroke:#00A7DB;stroke-width:2.5;stroke-linecap:round;stroke-miterlimit:10;}
	.st13{fill:#00AAE5;}
	.st14{fill:#ED0000;}
	.st15{fill:none;stroke:#00AAE5;stroke-width:2;stroke-miterlimit:10;}
	.st16{fill:#00AAE5;stroke:#00AAE5;stroke-width:2;stroke-miterlimit:10;}
	.st17{fill:none;stroke:#00AAE5;stroke-width:2;stroke-linecap:round;stroke-linejoin:round;stroke-miterlimit:10;}
</style>
<g>
	<path class="st0" d="M48.19,25.43c0,3.68-0.06,7.36,0.03,11.04c0.03,1.39-0.38,2.2-1.64,2.91c-6.5,3.63-12.95,7.34-19.37,11.11
		c-1.23,0.72-2.14,0.68-3.35-0.02c-6.38-3.69-12.78-7.32-19.22-10.9c-1.29-0.72-1.84-1.5-1.83-3.04c0.07-7.36,0.04-14.71-0.04-22.07
		c-0.01-1.31,0.38-2.06,1.55-2.72C10.88,8.04,17.41,4.29,23.9,0.5c1.15-0.67,2.01-0.65,3.14,0c6.44,3.72,12.92,7.4,19.42,11.02
		c1.22,0.68,1.76,1.44,1.72,2.87c-0.1,3.68-0.03,7.36-0.03,11.04C48.16,25.43,48.18,25.43,48.19,25.43z M42.52,14.16
		C36.87,10.94,31.63,7.93,26.35,5c-0.46-0.26-1.31-0.26-1.77,0c-5.27,2.96-10.5,5.99-16.15,9.24c5.64,3.21,10.89,6.22,16.17,9.15
		c0.46,0.26,1.32,0.26,1.78,0C31.66,20.43,36.89,17.39,42.52,14.16z M26.93,45.69c5.76-3.28,10.93-6.2,16.05-9.2
		c0.5-0.3,0.94-1.17,0.94-1.78c0.07-5.83,0.04-11.67,0.04-18.1c-5.76,3.3-11,6.26-16.17,9.31c-0.48,0.28-0.81,1.21-0.82,1.84
		C26.9,33.52,26.93,39.28,26.93,45.69z"/>
</g>
</svg>
