<?xml version="1.0" encoding="utf-8"?>
<!-- Generator: Adobe Illustrator 26.0.0, SVG Export Plug-In . SVG Version: 6.00 Build 0)  -->
<svg version="1.1" id="Capa_1" xmlns="http://www.w3.org/2000/svg" xmlns:xlink="http://www.w3.org/1999/xlink" x="0px" y="0px"
	 viewBox="0 0 51 51" style="enable-background:new 0 0 51 51;" xml:space="preserve">
<style type="text/css">
	.st0{fill:#FFFFFF;}
	.st1{fill:#00A7DB;}
	.st2{fill:none;stroke:#FFFFFF;stroke-width:3.2;stroke-linejoin:round;stroke-miterlimit:10;}
	.st3{fill:none;stroke:#FFFFFF;stroke-width:2;stroke-linecap:round;stroke-miterlimit:10;}
	.st4{fill:none;stroke:#FFFFFF;stroke-width:2.5;stroke-linecap:round;stroke-miterlimit:10;}
	.st5{fill:none;stroke:#FFFFFF;stroke-width:3;stroke-miterlimit:10;}
	.st6{fill:none;stroke:#00A7DB;stroke-width:3;stroke-miterlimit:10;}
	.st7{fill:none;stroke:#00A7DB;stroke-width:2;stroke-miterlimit:10;}
	.st8{fill:none;}
	.st9{fill:#636363;}
	.st10{fill:none;stroke:#00A7DB;stroke-width:3.2;stroke-linejoin:round;stroke-miterlimit:10;}
	.st11{fill:none;stroke:#00A7DB;stroke-width:2;stroke-linecap:round;stroke-miterlimit:10;}
	.st12{fill:none;stroke:#00A7DB;stroke-width:2.5;stroke-linecap:round;stroke-miterlimit:10;}
	.st13{fill:#00AAE5;}
	.st14{fill:#ED0000;}
	.st15{fill:none;stroke:#00AAE5;stroke-width:2;stroke-miterlimit:10;}
	.st16{fill:#00AAE5;stroke:#00AAE5;stroke-width:2;stroke-miterlimit:10;}
	.st17{fill:none;stroke:#00AAE5;stroke-width:2;stroke-linecap:round;stroke-linejoin:round;stroke-miterlimit:10;}
</style>
<g>
	<path class="st0" d="M51,25.46C51,39.54,39.59,51,25.58,51C11.41,51-0.01,39.6,0,25.48C0.01,11.34,11.43-0.04,25.62-0.03
		C39.58-0.02,51,11.44,51,25.46z M45.26,25.48c0.02-10.9-8.88-19.84-19.89-19.77C14.5,5.78,5.72,14.66,5.73,25.55
		c0.02,10.79,8.87,19.7,19.63,19.71C36.41,45.26,45.25,36.47,45.26,25.48z"/>
	<path class="st0" d="M18.21,25.85c0-2.95,0-5.91,0-8.86c0-1.78,1.62-2.72,3.16-1.83c5.12,2.95,10.24,5.91,15.36,8.87
		c1.5,0.86,1.48,2.76-0.01,3.62c-5.13,2.96-10.26,5.92-15.39,8.89c-1.46,0.84-3.11-0.09-3.12-1.77
		C18.21,31.8,18.21,28.83,18.21,25.85z"/>
</g>
</svg>
